<?xml version="1.0" encoding="UTF-8" standalone="no"?>
<svg
   xmlns:dc="http://purl.org/dc/elements/1.1/"
   xmlns:cc="http://creativecommons.org/ns#"
   xmlns:rdf="http://www.w3.org/1999/02/22-rdf-syntax-ns#"
   xmlns:svg="http://www.w3.org/2000/svg"
   xmlns="http://www.w3.org/2000/svg"
   xmlns:sodipodi="http://sodipodi.sourceforge.net/DTD/sodipodi-0.dtd"
   xmlns:inkscape="http://www.inkscape.org/namespaces/inkscape"
   viewBox="0 0 400 400"
   id="svg34"
   height="400"
   width="400"
   version="1.1"
   inkscape:version="0.91 r13725"
   sodipodi:docname="proudly-pinoy.svg">
  <sodipodi:namedview
     pagecolor="#ffffff"
     bordercolor="#666666"
     borderopacity="1"
     objecttolerance="10"
     gridtolerance="10"
     guidetolerance="10"
     inkscape:pageopacity="0"
     inkscape:pageshadow="2"
     inkscape:window-width="1366"
     inkscape:window-height="744"
     id="namedview21"
     showgrid="false"
     inkscape:zoom="0.35396558"
     inkscape:cx="420.94489"
     inkscape:cy="297.63779"
     inkscape:window-x="0"
     inkscape:window-y="24"
     inkscape:window-maximized="1"
     inkscape:current-layer="svg34" />
  <metadata
     id="metadata38">
    <rdf:RDF>
      <cc:Work
         rdf:about="">
        <dc:format>image/svg+xml</dc:format>
        <dc:type
           rdf:resource="http://purl.org/dc/dcmitype/StillImage" />
        <dc:title></dc:title>
      </cc:Work>
    </rdf:RDF>
  </metadata>
  <path
     id="path2"
     style="fill:#0072b7;fill-rule:evenodd"
     d="M 207.54769,67.681431 A 128.49405,128.49405 0 0 1 336.04159,196.17533 128.49405,128.49405 0 1 1 207.54769,67.681431 Z"
     inkscape:connector-curvature="0" />
  <defs
     id="defs9">
    <radialGradient
       r="86.334961"
       cy="256.56674"
       cx="394.7731"
       id="grad1"
       gradientTransform="matrix(1.6466617,0,0,1.3664008,-431.44766,-165.71901)"
       fx="394.7731"
       fy="256.56674"
       gradientUnits="userSpaceOnUse">
      <stop
         id="stop4"
         stop-opacity="1.0000"
         stop-color="#ffffff"
         offset="0%" />
      <stop
         id="stop6"
         stop-opacity="1.0000"
         stop-color="#ffcb00"
         offset="100%" />
    </radialGradient>
  </defs>
  <path
     id="path11"
     style="fill:url(#grad1)"
     d="m 216.18364,162.78683 c 6.5496,0.20925 12.7788,1.6866 18.45225,4.19235 l 12.147,-31.1685 7.25085,-1.90785 -16.35975,34.54335 c 0.3804,0.19995 0.7581,0.4044 1.1325,0.6138 l 17.22465,-35.0448 15.82035,-2.2416 3.04665,15.6888 -27.48135,27.6903 c 0.29325,0.258 0.5832,0.51915 0.8703,0.78405 l 27.27195,-26.6922 0.90735,7.19175 -25.77075,21.8772 c 4.3497,4.5921 7.8339,10.0122 10.18965,15.9993 l 30.4389,-13.36785 6.4764,3.77805 -35.78385,12.7836 c 0.12945,0.40965 0.25395,0.8217 0.37305,1.23615 l 36.744,-12.52695 12.77175,9.6009 -8.93925,13.2483 -38.75205,0.14685 c 0.0255,0.38985 0.0465,0.78105 0.0632,1.1733 l 37.89615,0.4074 -4.44375,5.7267 -33.42285,-2.73165 c -0.6759,26.8866 -22.6908,48.483 -49.74,48.483 -27.47505,0 -49.7562,-22.2813 -49.7562,-49.75635 0,-7.3104 1.57785,-14.253 4.41165,-20.50575 l -30.9858,-12.075 -1.90755,-7.25085 34.3974,16.2906 c 0.2043,-0.37935 0.4122,-0.7563 0.62595,-1.12965 l -34.91085,-17.1591 -2.2416,-15.82035 15.6891,-3.0462 27.66345,27.45495 c 0.26115,-0.2904 0.5247,-0.57795 0.7923,-0.8622 l -26.67405,-27.25365 7.19175,-0.90765 21.88395,25.7796 c 4.6278,-4.2921 10.07265,-7.71525 16.07625,-10.0086 l -13.452,-30.62955 3.7782,-6.4755 12.8637,36.0084 c 0.40995,-0.12525 0.82275,-0.24495 1.23705,-0.35985 l -12.6078,-36.9819 9.60165,-12.7716 13.24785,8.9391 0.14775,39.09645 c 0.38835,-0.0223 0.7785,-0.0396 1.16895,-0.0537 l 0.411,-38.2491 5.72685,4.4433 z"
     inkscape:connector-curvature="0" />
  <path
     id="path13"
     style="fill:#ffcb00;fill-rule:evenodd"
     d="m 336.01819,198.42758 -3e-4,0.006 c 5.4501,-4.6656 11.0997,-9.7374 17.01465,-15.34545 7.5189,84.6327 -59.8593,159.1512 -145.4847,159.1512 -3.60795,-6.8784 -7.93605,-12.83415 -12.7326,-18.18825 -62.9745,-6.198 -112.612796,-57.8796 -115.617146,-121.7394 2.73405,-0.96615 5.388,-1.80375 8.00535,-2.5833 0.16065,-0.0872 0.36255,-0.1671 0.61005,-0.2397 49.136096,-14.43405 78.115196,3.1932 105.124946,19.6866 36.4422,22.22325 69.27465,42.4323 143.07975,-20.7474 z"
     inkscape:connector-curvature="0" />
  <defs
     id="defs20">
    <radialGradient
       r="66.618637"
       cy="287.85974"
       cx="392.3743"
       id="grad2"
       gradientTransform="matrix(1.6476048,0,0,1.3656188,-431.44766,-165.71901)"
       fx="392.3743"
       fy="287.85974"
       gradientUnits="userSpaceOnUse">
      <stop
         id="stop15"
         stop-opacity="1.0000"
         stop-color="#ffffff"
         offset="0%" />
      <stop
         id="stop17"
         stop-opacity="1.0000"
         stop-color="#ffcb00"
         offset="100%" />
    </radialGradient>
  </defs>
  <path
     id="path22"
     style="fill:url(#grad2)"
     d="m 336.01594,198.42623 -3e-4,0.006 c 5.4501,-4.6659 11.0994,-9.738 17.0145,-15.3462 7.5186,84.6363 -59.85825,159.1584 -145.48215,159.1584 -3.6078,-6.87885 -7.93605,-12.83475 -12.7323,-18.18915 -62.9733,-6.1983 -112.610846,-57.88215 -115.615046,-121.74495 2.7339,-0.96615 5.38785,-1.8039 8.0052,-2.58345 0.1608,-0.0871 0.36255,-0.1671 0.61005,-0.2397 33.268946,-9.7737 57.296396,-4.84695 77.729246,4.4733 0.72585,-4.1874 1.97475,-8.19495 3.67815,-11.95365 l -30.98505,-12.0753 -1.9077,-7.25145 34.3968,16.2915 c 0.2043,-0.37935 0.4122,-0.75615 0.62595,-1.12965 l -34.91025,-17.15985 -2.2416,-15.8211 15.68895,-3.0465 27.66285,27.4563 c 0.261,-0.2904 0.52455,-0.5778 0.7923,-0.86205 l -26.6736,-27.255 7.1916,-0.9078 21.88365,25.78065 c 4.6278,-4.29225 10.07235,-7.7154 16.07595,-10.0089 l -13.45185,-30.6309 3.77805,-6.47595 12.86355,36.0102 c 0.40995,-0.12525 0.8226,-0.24495 1.23705,-0.35985 l -12.60765,-36.98355 9.60165,-12.77235 13.2474,8.9394 0.14775,39.0984 c 0.38835,-0.0225 0.7785,-0.0396 1.16895,-0.0537 l 0.411,-38.25105 5.72685,4.4436 -2.76225,33.8019 c 6.5493,0.2094 12.7785,1.68675 18.4518,4.19265 l 12.1467,-31.16985 7.251,-1.908 -16.3596,34.54515 c 0.38055,0.1998 0.7581,0.4044 1.1325,0.6138 l 17.2245,-35.04675 15.8199,-2.2416 3.04665,15.68955 -27.4809,27.69165 c 0.29325,0.258 0.5832,0.51915 0.8703,0.78405 l 27.2715,-26.69325 0.9072,7.1919 -25.7703,21.87825 c 4.34985,4.5924 7.83375,10.0128 10.1895,16.00005 l 30.43845,-13.3686 6.47625,3.77835 -35.78325,12.7842 c 0.12945,0.40965 0.25395,0.82185 0.37305,1.23615 l 36.7434,-12.52755 12.77145,9.6012 -8.93895,13.24905 -38.75145,0.14685 c 0.0255,0.38985 0.0465,0.78105 0.0632,1.1733 l 37.8954,0.4074 -4.44375,5.72715 -33.4221,-2.7318 c -0.2499,9.939 -3.41745,19.15275 -8.6751,26.8224 20.99055,-1.63365 46.32195,-13.02225 80.385,-42.18315 z"
     inkscape:connector-curvature="0" />
  <path
     id="path24"
     style="fill:#e30016;fill-rule:evenodd;stroke:#e30016;stroke-width:0.324;stroke-linecap:butt;stroke-linejoin:miter;stroke-dasharray:none"
     d="m 144.18334,214.21493 c 27.34245,0 58.188,27.9477 101.5824,4.89195 3.96885,43.8546 -47.13105,34.1904 -40.34325,37.7718 42.58815,22.4715 106.5168,30.44925 151.194,-4.824 -23.0106,61.7703 -80.65125,104.3379 -149.06895,103.84935 -62.2872,-0.4449 -116.262896,-35.6745 -142.599746,-87.70215 8.4414,-29.32575 22.5372,-55.84815 79.235546,-53.98695 z"
     inkscape:connector-curvature="0" />
  <path
     id="path26"
     style="fill:#ffffff;fill-rule:evenodd"
     d="m 144.87799,101.50478 10.296,8.34345 11.11665,-7.21365 -4.7535,12.3702 10.296,8.3433 -13.23375,-0.6981 -4.7535,12.3702 -3.4254,-12.80175 -13.2336,-0.6981 11.11665,-7.2138 z"
     inkscape:connector-curvature="0" />
  <path
     id="path28"
     style="fill:#ffffff;fill-rule:evenodd"
     d="m 242.05549,93.927231 0.98265,10.627649 10.41105,2.34945 -9.8037,4.2186 0.9828,10.6275 -7.04175,-8.0202 -9.8037,4.21875 5.45175,-9.1755 -7.04175,-8.0202 10.41105,2.34945 z"
     inkscape:connector-curvature="0" />
  <path
     id="path30"
     style="fill:#ffffff;fill-rule:evenodd"
     d="m 310.48249,153.36788 -5.4294,6.53565 4.5369,7.182 -7.8924,-3.1428 -5.4294,6.5355 0.55155,-8.47785 -7.8924,-3.1428 8.23335,-2.09685 0.55155,-8.478 4.5369,7.182 z"
     inkscape:connector-curvature="0" />
  <path
     id="path32"
     style="fill:#1b1918;fill-rule:evenodd"
     d="m 73.744394,233.74028 -21.81165,4.33575 -1.404,-7.06425 c -0.5319,-2.67615 -0.76755,-4.4454 -0.711,-5.30175 0.07695,-1.31355 0.57915,-2.5062 1.50825,-3.567 0.92895,-1.0614 2.26245,-1.76415 3.9942,-2.1081 1.3407,-0.26715 2.5164,-0.2475 3.52275,0.0594 1.0107,0.30585 1.84875,0.7782 2.5215,1.42575 0.6663,0.6438 1.16295,1.33635 1.48395,2.07495 0.41715,1.01025 0.8265,2.51205 1.2237,4.5084 l 0.5697,2.8692 8.2272,-1.6353 z m -18.9948,-0.8016 6.1854,-1.22955 -0.47835,-2.40705 c -0.3453,-1.737 -0.68805,-2.8773 -1.03275,-3.4161 -0.34485,-0.53865 -0.7914,-0.92475 -1.3458,-1.16295 -0.5523,-0.2334 -1.1493,-0.28905 -1.79475,-0.16065 -0.7917,0.15735 -1.40055,0.52125 -1.82535,1.0914 -0.42135,0.5643 -0.6285,1.22295 -0.6141,1.9593 0.003,0.54855 0.168,1.6137 0.4827,3.198 z m 14.1867,-24.81435 -22.23825,0.0939 -0.0399,-9.4539 c -0.009,-2.37675 0.1845,-4.10175 0.57915,-5.1801 0.39375,-1.0788 1.09995,-1.94655 2.11665,-2.59845 1.023,-0.65085 2.18595,-0.9771 3.501,-0.9825 1.66725,-0.008 3.05205,0.4791 4.14315,1.4529 1.08675,0.9741 1.78155,2.4414 2.0694,4.39215 0.5655,-0.9762 1.1829,-1.7811 1.85895,-2.4159 0.6753,-0.6339 1.8726,-1.48815 3.5976,-2.5674 l 4.32765,-2.73645 0.0225,5.3694 -4.82715,3.26625 c -1.7247,1.16205 -2.8089,1.95345 -3.2571,2.38035 -0.44895,0.426 -0.7521,0.8784 -0.921,1.3551 -0.16365,0.477 -0.24405,1.22835 -0.23925,2.26365 l 0.003,0.90615 9.2838,-0.0392 z m -12.85455,-4.43955 -0.0135,-3.3186 c -0.009,-2.1546 -0.1029,-3.50025 -0.2862,-4.0377 -0.18405,-0.5328 -0.5013,-0.95085 -0.9477,-1.254 -0.447,-0.29925 -1.0014,-0.45195 -1.66935,-0.44895 -0.75045,0.003 -1.35045,0.20745 -1.80975,0.6084 -0.4587,0.40065 -0.7461,0.96615 -0.86775,1.69695 -0.04515,0.3624 -0.0663,1.4547 -0.05865,3.27795 l 0.0153,3.4998 z m 2.1417,-24.88425 c -2.21985,-0.46215 -4.01205,-1.17855 -5.3796,-2.1561 -1.0017,-0.72675 -1.8597,-1.60905 -2.56305,-2.64945 -0.699,-1.0392 -1.15785,-2.1132 -1.3716,-3.22005 -0.2952,-1.4793 -0.25395,-3.0993 0.11565,-4.8735 0.66795,-3.20865 2.19525,-5.5668 4.58775,-7.07835 2.38845,-1.51275 5.35665,-1.89975 8.8998,-1.16205 3.51765,0.73215 6.06585,2.2617 7.65525,4.58625 1.5843,2.32365 2.04615,5.0853 1.3815,8.27895 -0.6744,3.23865 -2.19915,5.60835 -4.5687,7.10925 -2.37435,1.4988 -5.295,1.8858 -8.757,1.16505 z m 0.7947,-4.5573 c 2.46405,0.5133 4.45395,0.32955 5.96265,-0.5412 1.50975,-0.87555 2.44395,-2.18895 2.8092,-3.94245 0.3636,-1.74885 0.0348,-3.3195 -0.9984,-4.70865 -1.029,-1.38315 -2.80245,-2.33895 -5.3268,-2.86455 -2.4942,-0.5187 -4.46835,-0.35835 -5.9268,0.4746 -1.455,0.8397 -2.37135,2.1672 -2.74815,3.97635 -0.3771,1.81515 -0.05775,3.40455 0.9534,4.7733 1.01145,1.36365 2.76585,2.31045 5.2749,2.8326 z m -3.7515,-31.3995 1.73655,-4.13925 11.1057,4.6584 c 1.76205,0.7395 2.9301,1.1676 3.4926,1.2855 0.91455,0.17595 1.7658,0.0332 2.5503,-0.4185 0.79125,-0.45315 1.42695,-1.25895 1.91175,-2.415 0.49275,-1.1745 0.62625,-2.163 0.3945,-2.96205 -0.2271,-0.79725 -0.6693,-1.40355 -1.3164,-1.8156 -0.6492,-0.4179 -1.78575,-0.9621 -3.40875,-1.64295 l -11.34465,-4.75875 1.7364,-4.1397 10.7715,4.5186 c 2.46405,1.03365 4.1559,1.87245 5.0781,2.523 0.92355,0.65145 1.6056,1.42065 2.05545,2.3166 0.4443,0.89415 0.66465,1.935 0.6591,3.1119 -0.0075,1.1817 -0.35415,2.5857 -1.03545,4.20915 -0.8214,1.9575 -1.66845,3.348 -2.5464,4.1703 -0.8781,0.82185 -1.8003,1.37295 -2.76765,1.6578 -0.96735,0.2844 -1.8891,0.3534 -2.75955,0.20715 -1.2888,-0.2208 -3.078,-0.81435 -5.3745,-1.7778 z m 13.19595,-29.00775 4.5603,-6.8235 c 1.02735,-1.53675 1.9257,-2.62995 2.70345,-3.2805 1.0434,-0.8724 2.23305,-1.42215 3.56655,-1.64625 1.3308,-0.2313 2.7237,-0.1536 4.17375,0.2304 1.45155,0.3912 3.04185,1.1613 4.7766,2.3208 1.5192,1.01535 2.70555,2.08215 3.554696,3.19785 1.0353,1.3581 1.68375,2.7447 1.9392,4.161 0.20115,1.06845 0.108,2.27055 -0.2754,3.60855 -0.2871,0.99765 -0.8943,2.18595 -1.81785,3.56745 l -4.692446,7.02135 z m 5.62365,-1.64085 12.2427,8.1825 1.8615,-2.78505 c 0.6966,-1.04175 1.1439,-1.83255 1.33395,-2.37765 0.25215,-0.70365 0.33495,-1.3773 0.2406,-2.01885 -0.09345,-0.64245 -0.47655,-1.3653 -1.1331,-2.17155 -0.66,-0.8022 -1.70505,-1.6875 -3.13455,-2.64345 -1.42905,-0.9549 -2.6091,-1.5561 -3.54195,-1.8189 -0.9363,-0.25815 -1.77045,-0.30495 -2.4984,-0.13785 -0.7356,0.16845 -1.41,0.55245 -2.0265,1.149 -0.4686,0.4404 -1.2063,1.4235 -2.2251,2.94735 z m 29.211896,-8.75175 -15.662996,-15.530399 3.16095,-3.18765 13.000796,12.89115 7.8603,-7.92705 2.6613,2.6397 z m 19.8555,-18.300449 -5.5344,-7.5498 -14.18205,-5.57055 4.2477,-3.11325 9.4224,3.99975 -1.0668,-10.124696 4.17165,-3.0585 1.0374,15.244196 5.5161,7.52505 z m 15.32745,-35.515496 10.4952,-4.50705 c 2.2836,-0.981 4.22895,-1.1748 5.8341,-0.57315 1.6026,0.59655 2.8395,1.9023 3.6996,3.9054 0.88695,2.0643 0.96135,3.94335 0.2181,5.6373 -0.74325,1.6935 -2.3874,3.08775 -4.93275,4.1805 l -3.45375,1.4835 3.25695,7.582946 -6.34185,2.7243 z m 10.0827,5.98725 1.54605,-0.6642 c 1.21815,-0.52305 1.98015,-1.09785 2.2926,-1.73355 0.30825,-0.6339 0.32325,-1.2828 0.0408,-1.93965 -0.27555,-0.64215 -0.7245,-1.0971 -1.3428,-1.35555 -0.6156,-0.26535 -1.51575,-0.1437 -2.69565,0.36345 l -1.7982,0.77175 z m 21.537,-17.3604 6.7548,-1.3428 4.3353,21.8118 -6.75435,1.3419 z m 20.9997,-3.50655 6.41025,-0.36315 9.05505,11.8086 -0.69615,-12.2823 6.4668,-0.366 1.25775,22.2024 -6.46635,0.36615 -9.0087,-11.71845 0.6906,12.1896 -6.4515,0.36555 z m 34.77945,10.69875 c 0.67725,-3.5652 2.202,-6.15345 4.56315,-7.76025 2.36625,-1.61115 5.32215,-2.0775 8.86755,-1.40355 3.63705,0.6909 6.2538,2.1999 7.8516,4.527 1.5933,2.32155 2.06055,5.24565 1.39215,8.76075 -0.48525,2.5533 -1.3152,4.56705 -2.48535,6.0366 -1.1697,1.4694 -2.6523,2.5053 -4.4484,3.10695 -1.80075,0.60165 -3.90585,0.67095 -6.33195,0.21 -2.4624,-0.4677 -4.4277,-1.2471 -5.89665,-2.33775 -1.46265,-1.0944 -2.5338,-2.5848 -3.21795,-4.4748 -0.6798,-1.8891 -0.7794,-4.1112 -0.29415,-6.66495 z m 6.7491,1.3143 c -0.41925,2.20755 -0.3129,3.86715 0.32265,4.98885 0.6366,1.1169 1.6638,1.81305 3.0726,2.0805 1.44945,0.27555 2.66385,0.0162 3.63585,-0.77385 0.97365,-0.7956 1.6974,-2.41305 2.16075,-4.8549 0.39165,-2.0601 0.25935,-3.63975 -0.38895,-4.7487 -0.64935,-1.10325 -1.68345,-1.78995 -3.10785,-2.06085 -1.3584,-0.25815 -2.54265,0.012 -3.5499,0.82275 -1.0074,0.80445 -1.72245,2.3232 -2.14515,4.5462 z m 27.52515,-4.704 7.0884,2.8293 1.3866,8.63655 6.9516,-5.3085 7.04505,2.81175 -12.82095,8.79735 -3.4527,8.651546 -6.39615,-2.553 3.453,-8.651396 z"
     inkscape:connector-curvature="0" />
</svg>
