<?xml version="1.0" encoding="UTF-8" standalone="no"?>
<svg
   xmlns:dc="http://purl.org/dc/elements/1.1/"
   xmlns:cc="http://creativecommons.org/ns#"
   xmlns:rdf="http://www.w3.org/1999/02/22-rdf-syntax-ns#"
   xmlns:svg="http://www.w3.org/2000/svg"
   xmlns="http://www.w3.org/2000/svg"
   xmlns:sodipodi="http://sodipodi.sourceforge.net/DTD/sodipodi-0.dtd"
   xmlns:inkscape="http://www.inkscape.org/namespaces/inkscape"
   width="96"
   height="48"
   viewBox="0 0 96 48"
   id="svg2"
   version="1.1"
   inkscape:version="0.91 r13725"
   sodipodi:docname="about-icons2.svg">
  <metadata
     id="metadata10">
    <rdf:RDF>
      <cc:Work
         rdf:about="">
        <dc:format>image/svg+xml</dc:format>
        <dc:type
           rdf:resource="http://purl.org/dc/dcmitype/StillImage" />
        <dc:title></dc:title>
      </cc:Work>
    </rdf:RDF>
  </metadata>
  <defs
     id="defs8" />
  <sodipodi:namedview
     pagecolor="#ffffff"
     bordercolor="#666666"
     borderopacity="1"
     objecttolerance="10"
     gridtolerance="10"
     guidetolerance="10"
     inkscape:pageopacity="0"
     inkscape:pageshadow="2"
     inkscape:window-width="1366"
     inkscape:window-height="744"
     id="namedview6"
     showgrid="false"
     inkscape:zoom="6.9532167"
     inkscape:cx="56.121181"
     inkscape:cy="37.946478"
     inkscape:window-x="0"
     inkscape:window-y="24"
     inkscape:window-maximized="1"
     inkscape:current-layer="svg2" />
  <path
     d="m 63.682911,3.9823393 c 0,-2.21 -1.792,-4 -4,-4 l -24,0 c -2.21,0 -4,1.792 -4,4 l 0,40.0000007 c 0,2.208 1.79,4 4,4 l 24,0 c 2.208,0 4,-1.792 4,-4 l 0,-40.0000007 z m -19.002,0 6.002,0 c 0.552,0 1,0.448 1,1 0,0.552 -0.448,1 -1,1 l -6.002,0 c -0.55,0 -0.998,-0.448 -0.998,-1 0,-0.552 0.448,-1 0.998,-1 z m 3.002,40.0000007 c -1.106,0 -2,-0.896 -2,-2 0,-1.104 0.894,-2 2,-2 1.104,0 1.998,0.896 1.998,2 0,1.104 -0.894,2 -1.998,2 z m 12,-6 -24,0 0,-28.0479997 24,0 0,28.0479997 z"
     id="path4"
     inkscape:connector-curvature="0"
     style="fill:#55555f;fill-opacity:0.94117647" />
  <path
     style="color:#000000;clip-rule:nonzero;display:inline;overflow:visible;visibility:visible;opacity:1;isolation:auto;mix-blend-mode:normal;color-interpolation:sRGB;color-interpolation-filters:linearRGB;solid-color:#000000;solid-opacity:1;fill:#000000;fill-opacity:1;fill-rule:nonzero;stroke:#000000;stroke-width:0.10169491;stroke-linecap:butt;stroke-linejoin:miter;stroke-miterlimit:4;stroke-dasharray:none;stroke-dashoffset:0;stroke-opacity:1;color-rendering:auto;image-rendering:auto;shape-rendering:auto;text-rendering:auto;enable-background:accumulate"
     d=""
     id="path4716"
     inkscape:connector-curvature="0" />
  <path
     style="color:#000000;clip-rule:nonzero;display:inline;overflow:visible;visibility:visible;opacity:1;isolation:auto;mix-blend-mode:normal;color-interpolation:sRGB;color-interpolation-filters:linearRGB;solid-color:#000000;solid-opacity:1;fill:#88b04b;fill-opacity:1;fill-rule:nonzero;stroke:#88b04b;stroke-width:0.14381833;stroke-linecap:butt;stroke-linejoin:miter;stroke-miterlimit:4;stroke-dasharray:none;stroke-dashoffset:0;stroke-opacity:1;color-rendering:auto;image-rendering:auto;shape-rendering:auto;text-rendering:auto;enable-background:accumulate"
     d="m 44.680059,34.84017 c -1.081743,-0.214849 -2.808029,-0.973018 -3.612374,-1.586521 -0.679828,-0.51853 -0.539439,-0.588358 0.314006,-0.156181 2.409423,1.220112 5.09623,1.226782 7.368698,0.0183 1.677153,-0.8919 2.20497,-1.517042 2.535594,-3.003135 0.131526,-0.591183 0.192006,-1.216263 0.135046,-1.39573 -0.09038,-0.284775 -0.137,-0.23432 -0.376361,0.407342 -0.79168,2.122277 -3.209287,3.513906 -5.69919,3.280584 -2.48242,-0.232622 -4.511172,-1.096121 -5.926989,-2.522708 -1.081082,-1.089306 -1.73347,-2.127052 -2.272036,-3.614098 -0.333789,-0.921636 -0.381993,-1.272801 -0.381698,-2.780671 3.97e-4,-2.026362 0.230007,-3.050725 1.063813,-4.746005 0.685214,-1.393166 1.66614,-2.635531 2.805909,-3.553749 0.886857,-0.714468 2.859736,-1.761468 3.601926,-1.91153 0.304384,-0.06154 0.199516,0.02873 -0.356066,0.306503 -0.433137,0.216556 -1.155826,0.753971 -1.605976,1.194256 -1.044971,1.022068 -1.336326,1.894799 -1.246789,3.734659 0.09748,2.003132 0.917526,3.403622 2.700286,4.611617 1.125956,0.762945 1.848687,1.110075 3.816366,1.833015 2.003582,0.736131 2.674156,1.102679 3.408588,1.863201 1.925975,1.994392 1.40816,5.489201 -1.060771,7.159291 -1.494247,1.010774 -3.113244,1.278401 -5.211982,0.861563 z"
     id="path4728"
     inkscape:connector-curvature="0" />
  <path
     style="color:#000000;clip-rule:nonzero;display:inline;overflow:visible;visibility:visible;opacity:1;isolation:auto;mix-blend-mode:normal;color-interpolation:sRGB;color-interpolation-filters:linearRGB;solid-color:#000000;solid-opacity:1;fill:#e8e3d9;fill-opacity:1;fill-rule:nonzero;stroke:#e8e3d9;stroke-width:0.14381833;stroke-linecap:butt;stroke-linejoin:miter;stroke-miterlimit:4;stroke-dasharray:none;stroke-dashoffset:0;stroke-opacity:1;color-rendering:auto;image-rendering:auto;shape-rendering:auto;text-rendering:auto;enable-background:accumulate"
     d="m 51.826601,34.595601 c 1.235009,-0.692323 1.714734,-1.129348 2.184806,-1.990342 0.36236,-0.663708 0.432541,-0.97036 0.48334,-2.111948 0.05,-1.123635 0.008,-1.477275 -0.264734,-2.229184 -0.796624,-2.196207 -2.581646,-3.585549 -6.202718,-4.827787 -1.993526,-0.683894 -2.5858,-0.975247 -3.386626,-1.665959 -1.868138,-1.611268 -1.867771,-4.683438 7.95e-4,-6.659171 0.439828,-0.465054 1.086853,-0.941902 1.663652,-1.226089 2.190893,-1.079445 5.795315,-0.519684 8.132485,1.262962 0.638364,0.486904 0.584931,0.618604 -0.08953,0.220664 -0.765854,-0.451865 -2.026666,-0.842215 -3.270299,-1.012492 -0.91395,-0.125137 -1.332918,-0.113085 -2.175407,0.06258 -2.05188,0.427829 -3.962706,1.604867 -4.471069,2.754106 -0.338278,0.764733 -0.585391,2.035327 -0.467862,2.405629 0.07081,0.223112 0.17522,0.101657 0.507183,-0.59 0.516408,-1.075954 1.502881,-2.069225 2.559474,-2.577112 1.647949,-0.792143 4.721159,-0.550719 6.974338,0.547888 2.401227,1.170792 4.279914,3.882475 4.689206,6.768366 0.276301,1.948174 -0.345572,4.799662 -1.461054,6.699406 -0.266192,0.453344 -1.007294,1.347854 -1.646893,1.9878 -0.970375,0.970901 -1.41087,1.286657 -2.660639,1.907196 -1.65162,0.820069 -2.410547,1.009022 -1.098451,0.273488 z"
     id="path4730"
     inkscape:connector-curvature="0" />
  <path
     inkscape:connector-curvature="0"
     d="m 19.817016,29.245586 -11.9949999,0 -0.002,-0.623 c 0,-1.259 0.1,-1.986 1.5879999,-2.33 1.684,-0.389 3.344,-0.736 2.545,-2.209 -2.366,-4.363 -0.674,-6.838 1.866,-6.838 2.491,0 4.226,2.383 1.866,6.839 -0.775,1.464 0.826,1.812 2.545,2.209 1.49,0.344 1.589,1.072 1.589,2.333 l -0.002,0.619 z m 4.811,-2.214 c -1.29,-0.298 -2.49,-0.559 -1.909,-1.657 1.769,-3.342 0.469,-5.129 -1.4,-5.129 -1.265,0 -2.248,0.817 -2.248,2.324 0,3.903 2.268,1.77 2.246,6.676 l 4.501,0 0.002,-0.463 c 0,-0.946 -0.074,-1.493 -1.192,-1.751 z m -22.8059999,2.214 4.501,0 c -0.021,-4.906 2.2459999,-2.772 2.2459999,-6.676 0,-1.507 -0.9829999,-2.324 -2.2479999,-2.324 -1.869,0 -3.169,1.787 -1.399,5.129 0.581,1.099 -0.619,1.359 -1.909,1.657 -1.119,0.258 -1.193,0.805 -1.193,1.751 l 0.002,0.463 z"
     id="path4-3"
     style="fill-rule:nonzero" />
  <path
     inkscape:connector-curvature="0"
     d="m 87.254355,28.694988 -0.998,0 c 0,-1.552 0.06,-1.775 -0.88,-1.993 -1.438,-0.332 -2.797,-0.645 -3.293,-1.729 -0.18,-0.396 -0.301,-1.048 0.155,-1.907 1.021,-1.929 1.277,-3.583 0.702,-4.538 -0.672,-1.115 -2.707,-1.12 -3.385,0.017 -0.576,0.968 -0.316,2.613 0.713,4.512 0.465,0.856 0.348,1.51 0.168,1.908 -0.49,1.089 -1.836,1.4 -3.262,1.728 -0.982,0.227 -0.92,0.435 -0.92,2.002 l -0.995,0 -0.002,-0.623 c 0,-1.259 0.1,-1.985 1.588,-2.329 1.682,-0.389 3.344,-0.736 2.545,-2.209 -2.366,-4.365 -0.676,-6.839 1.865,-6.839 2.492,0 4.227,2.383 1.867,6.839 -0.775,1.464 0.824,1.812 2.545,2.209 1.49,0.344 1.589,1.072 1.589,2.333 l -0.002,0.619 z m 4.81,-2.214 c -1.289,-0.298 -2.489,-0.559 -1.908,-1.657 1.77,-3.342 0.47,-5.129 -1.4,-5.129 -1.265,0 -2.248,0.817 -2.248,2.325 0,1.269 0.574,2.175 0.904,2.925 l 1.048,0 c -0.17,-0.75 -1.466,-2.562 -0.766,-3.736 0.412,-0.692 1.704,-0.693 2.114,-0.012 0.38,0.631 0.181,1.812 -0.534,3.161 -0.388,0.733 -0.28,1.301 -0.121,1.648 0.305,0.666 0.977,0.987 1.737,1.208 1.507,0.441 1.368,0.042 1.368,1.48 l 0.997,0 0.002,-0.463 c 0,-0.945 -0.074,-1.492 -1.193,-1.75 z m -22.805,2.214 0.997,0 c 0,-1.438 -0.139,-1.039 1.368,-1.48 0.761,-0.221 1.433,-0.542 1.737,-1.208 0.159,-0.348 0.267,-0.915 -0.121,-1.648 -0.715,-1.349 -0.914,-2.53 -0.534,-3.161 0.41,-0.682 1.702,-0.681 2.114,0.012 0.7,1.175 -0.596,2.986 -0.766,3.736 l 1.048,0 c 0.33,-0.75 0.904,-1.656 0.904,-2.925 0.001,-1.509 -0.982,-2.326 -2.247,-2.326 -1.87,0 -3.17,1.787 -1.4,5.129 0.581,1.099 -0.619,1.359 -1.908,1.657 -1.12,0.258 -1.194,0.805 -1.194,1.751 l 0.002,0.463 z"
     id="path4-6" />
  <path
     inkscape:connector-curvature="0"
     d="m 24.256446,13.601504 5,-3.544 -5,-3.4560001 0,1.521 c 0,0 -5.809,1.2915 -7,6.4790001 2.536,-2.7155 7,-2.609 7,-2.609 l 0,1.609 z"
     id="path4-36" />
  <path
     inkscape:connector-curvature="0"
     d="m 71.000001,13.423729 -5,-3.5440001 5,-3.4560004 0,1.521 c 0,0 5.809,1.2915004 7,6.4790005 -2.536,-2.7155 -7,-2.609 -7,-2.609 l 0,1.609 z"
     id="path4-36-7" />
  <path
     inkscape:connector-curvature="0"
     d="m 23.253944,34.373867 -6.05892,-0.921637 1.198237,5.958873 1.056157,-1.094519 c 0,0 5.076983,3.104303 9.536147,0.198361 -3.710517,0.193132 -6.848883,-2.983234 -6.848883,-2.983234 l 1.117262,-1.157844 z"
     id="path4-36-7-5" />
  <path
     inkscape:connector-curvature="0"
     d="m 71.889333,33.868295 6.05892,-0.921637 -1.198237,5.958873 -1.056157,-1.094519 c 0,0 -5.076983,3.104303 -9.536147,0.198361 3.710517,0.193132 6.848883,-2.983234 6.848883,-2.983234 l -1.117262,-1.157844 z"
     id="path4-36-7-5-3" />
</svg>
