<?xml version="1.0" encoding="UTF-8" standalone="no"?>
<svg
   xmlns:dc="http://purl.org/dc/elements/1.1/"
   xmlns:cc="http://creativecommons.org/ns#"
   xmlns:rdf="http://www.w3.org/1999/02/22-rdf-syntax-ns#"
   xmlns:svg="http://www.w3.org/2000/svg"
   xmlns="http://www.w3.org/2000/svg"
   xmlns:sodipodi="http://sodipodi.sourceforge.net/DTD/sodipodi-0.dtd"
   xmlns:inkscape="http://www.inkscape.org/namespaces/inkscape"
   width="48"
   height="48"
   viewBox="0 0 48 48"
   id="svg2"
   version="1.1"
   inkscape:version="0.91 r13725"
   sodipodi:docname="serveast-logo.svg">
  <metadata
     id="metadata10">
    <rdf:RDF>
      <cc:Work
         rdf:about="">
        <dc:format>image/svg+xml</dc:format>
        <dc:type
           rdf:resource="http://purl.org/dc/dcmitype/StillImage" />
        <dc:title></dc:title>
      </cc:Work>
    </rdf:RDF>
  </metadata>
  <defs
     id="defs8" />
  <sodipodi:namedview
     pagecolor="#ffffff"
     bordercolor="#666666"
     borderopacity="1"
     objecttolerance="10"
     gridtolerance="10"
     guidetolerance="10"
     inkscape:pageopacity="0"
     inkscape:pageshadow="2"
     inkscape:window-width="1366"
     inkscape:window-height="744"
     id="namedview6"
     showgrid="false"
     inkscape:zoom="6.9532167"
     inkscape:cx="-7.4053778"
     inkscape:cy="23.186243"
     inkscape:window-x="0"
     inkscape:window-y="24"
     inkscape:window-maximized="1"
     inkscape:current-layer="svg2" />
  <path
     style="color:#000000;clip-rule:nonzero;display:inline;overflow:visible;visibility:visible;opacity:1;isolation:auto;mix-blend-mode:normal;color-interpolation:sRGB;color-interpolation-filters:linearRGB;solid-color:#000000;solid-opacity:1;fill:#000000;fill-opacity:1;fill-rule:nonzero;stroke:#000000;stroke-width:0.10169491;stroke-linecap:butt;stroke-linejoin:miter;stroke-miterlimit:4;stroke-dasharray:none;stroke-dashoffset:0;stroke-opacity:1;color-rendering:auto;image-rendering:auto;shape-rendering:auto;text-rendering:auto;enable-background:accumulate"
     d=""
     id="path4716"
     inkscape:connector-curvature="0" />
  <path
     style="color:#000000;clip-rule:nonzero;display:inline;overflow:visible;visibility:visible;opacity:1;isolation:auto;mix-blend-mode:normal;color-interpolation:sRGB;color-interpolation-filters:linearRGB;solid-color:#000000;solid-opacity:1;fill:#88b04b;fill-opacity:1;fill-rule:nonzero;stroke:#88b04b;stroke-width:0.28763667;stroke-linecap:butt;stroke-linejoin:miter;stroke-miterlimit:4;stroke-dasharray:none;stroke-dashoffset:0;stroke-opacity:1;color-rendering:auto;image-rendering:auto;shape-rendering:auto;text-rendering:auto;enable-background:accumulate"
     d="m 17.950019,45.253791 c -2.163486,-0.429698 -5.616058,-1.946036 -7.224748,-3.173042 -1.3596566,-1.03706 -1.0788783,-1.176716 0.628012,-0.312362 4.818846,2.440224 10.19246,2.453564 14.737396,0.0366 3.354306,-1.7838 4.40994,-3.034084 5.071188,-6.00627 0.263052,-1.182366 0.384012,-2.432526 0.270092,-2.79146 -0.18076,-0.56955 -0.274,-0.46864 -0.752722,0.814684 -1.58336,4.244554 -6.418574,7.027812 -11.39838,6.561168 -4.96484,-0.465244 -9.022344,-2.192242 -11.8539786,-5.045416 -2.162164,-2.178612 -3.46694,-4.254104 -4.544072,-7.228196 -0.667578,-1.843272 -0.763986,-2.545602 -0.763396,-5.561342 7.94e-4,-4.052724 0.460014,-6.10145 2.127626,-9.49201 1.370428,-2.786332 3.33228,-5.2710617 5.6118183,-7.1074977 1.7737143,-1.428936 5.7194723,-3.522936 7.2038523,-3.82306 0.608768,-0.12308 0.399032,0.05746 -0.712132,0.613006 -0.866274,0.433112 -2.311652,1.507942 -3.211952,2.388512 -2.089942,2.044136 -2.672652,3.789598 -2.493578,7.4693177 0.19496,4.006264 1.835052,6.807244 5.400572,9.223234 2.251912,1.52589 3.697374,2.22015 7.632732,3.66603 4.007164,1.472262 5.348312,2.205358 6.817176,3.726402 3.85195,3.988784 2.81632,10.978402 -2.121542,14.318582 -2.988494,2.021548 -6.226488,2.556802 -10.423964,1.723126 z"
     id="path4728"
     inkscape:connector-curvature="0" />
  <path
     style="color:#000000;clip-rule:nonzero;display:inline;overflow:visible;visibility:visible;opacity:1;isolation:auto;mix-blend-mode:normal;color-interpolation:sRGB;color-interpolation-filters:linearRGB;solid-color:#000000;solid-opacity:1;fill:#e8e3d9;fill-opacity:1;fill-rule:nonzero;stroke:#e8e3d9;stroke-width:0.28763667;stroke-linecap:butt;stroke-linejoin:miter;stroke-miterlimit:4;stroke-dasharray:none;stroke-dashoffset:0;stroke-opacity:1;color-rendering:auto;image-rendering:auto;shape-rendering:auto;text-rendering:auto;enable-background:accumulate"
     d="m 32.243103,44.764653 c 2.470018,-1.384646 3.429468,-2.258696 4.369612,-3.980684 0.72472,-1.327416 0.865082,-1.94072 0.96668,-4.223896 0.1,-2.24727 0.016,-2.95455 -0.529468,-4.458368 -1.593248,-4.392414 -5.163292,-7.171098 -12.405436,-9.655574 -3.987052,-1.367788 -5.1716,-1.950494 -6.773252,-3.331918 -3.736276,-3.222536 -3.735542,-9.3668757 0.0016,-13.3183417 0.879656,-0.930108 2.173706,-1.883804 3.327304,-2.452178 4.381786,-2.15889 11.59063,-1.039368 16.26497,2.525924 1.276728,0.973808 1.169862,1.237208 -0.17906,0.441328 -1.531708,-0.90373 -4.053332,-1.68443 -6.540598,-2.024984 -1.8279,-0.250274 -2.665836,-0.22617 -4.350814,0.12516 -4.10376,0.855658 -7.925412,3.209734 -8.942138,5.508212 -0.676556,1.5294657 -1.170782,4.0706537 -0.935724,4.8112577 0.14162,0.446224 0.35044,0.203314 1.014366,-1.18 1.032816,-2.151908 3.005762,-4.1384497 5.118948,-5.1542237 3.295898,-1.584286 9.442318,-1.101438 13.948676,1.095776 4.802454,2.3415837 8.559828,7.7649497 9.378412,13.5367317 0.552602,3.896348 -0.691144,9.599324 -2.922108,13.398812 -0.532384,0.906688 -2.014588,2.695708 -3.293786,3.9756 -1.94075,1.941802 -2.82174,2.573314 -5.321278,3.814392 -3.30324,1.640138 -4.821094,2.018044 -2.196902,0.546976 z"
     id="path4730"
     inkscape:connector-curvature="0" />
</svg>
